<svg width="20" height="20" viewBox="0 0 20 20" fill="none" xmlns="http://www.w3.org/2000/svg">
<path d="M15.75 2.75H18.75" stroke="#1C72A6" stroke-width="1.5" stroke-linecap="round" stroke-linejoin="round"/>
<path d="M0.75 2.75H11.75" stroke="#1C72A6" stroke-width="1.5" stroke-linecap="round" stroke-linejoin="round"/>
<path d="M7.75 9.75H18.75" stroke="#1C72A6" stroke-width="1.5" stroke-linecap="round" stroke-linejoin="round"/>
<path d="M0.75 9.75H3.75" stroke="#1C72A6" stroke-width="1.5" stroke-linecap="round" stroke-linejoin="round"/>
<path d="M15.75 16.75H18.75" stroke="#1C72A6" stroke-width="1.5" stroke-linecap="round" stroke-linejoin="round"/>
<path d="M0.75 16.75H11.75" stroke="#1C72A6" stroke-width="1.5" stroke-linecap="round" stroke-linejoin="round"/>
<path d="M15.1642 1.33579C15.9453 2.11684 15.9453 3.38317 15.1642 4.16422C14.3832 4.94527 13.1168 4.94527 12.3358 4.16422C11.5547 3.38317 11.5547 2.11684 12.3358 1.33579C13.1168 0.554738 14.3832 0.554738 15.1642 1.33579" stroke="#1C72A6" stroke-width="1.5" stroke-linecap="round" stroke-linejoin="round"/>
<path d="M7.16422 8.33579C7.94527 9.11684 7.94527 10.3832 7.16422 11.1642C6.38317 11.9453 5.11684 11.9453 4.33579 11.1642C3.55474 10.3832 3.55474 9.11684 4.33579 8.33579C5.11684 7.55474 6.38317 7.55474 7.16422 8.33579" stroke="#1C72A6" stroke-width="1.5" stroke-linecap="round" stroke-linejoin="round"/>
<path d="M15.1642 15.3358C15.9453 16.1168 15.9453 17.3832 15.1642 18.1642C14.3832 18.9453 13.1168 18.9453 12.3358 18.1642C11.5547 17.3832 11.5547 16.1168 12.3358 15.3358C13.1168 14.5547 14.3832 14.5547 15.1642 15.3358" stroke="#1C72A6" stroke-width="1.5" stroke-linecap="round" stroke-linejoin="round"/>
</svg>
